<mxfile host="Electron" modified="2023-06-05T07:24:45.504Z" agent="Mozilla/5.0 (Windows NT 10.0; Win64; x64) AppleWebKit/537.36 (KHTML, like Gecko) draw.io/21.2.8 Chrome/112.0.5615.165 Electron/24.2.0 Safari/537.36" etag="qGrEDoFLOfJro73YKLrt" version="21.2.8" type="device">
  <diagram id="LZKcX6WQHk62B-IT3wh8" name="Approach">
    <mxGraphModel dx="2634" dy="444" grid="1" gridSize="10" guides="1" tooltips="1" connect="1" arrows="1" fold="1" page="0" pageScale="1" pageWidth="827" pageHeight="1169" math="0" shadow="0">
      <root>
        <mxCell id="0" />
        <mxCell id="1" parent="0" />
        <mxCell id="dFNtb1b9l759t3CY5BOG-7" value="GitHub" style="text;strokeColor=none;fillColor=none;html=1;verticalAlign=middle;align=center;spacing=0;fontStyle=1;fontSize=14;" parent="1" vertex="1">
          <mxGeometry x="-679" y="735" width="100" height="30" as="geometry" />
        </mxCell>
        <mxCell id="dFNtb1b9l759t3CY5BOG-11" value="" style="endArrow=none;dashed=1;html=1;rounded=0;fontFamily=Shadows Into Light;fontSize=14;strokeColor=#666666;strokeWidth=2;endFill=0;fontColor=#000000;" parent="1" source="dFNtb1b9l759t3CY5BOG-45" target="dFNtb1b9l759t3CY5BOG-70" edge="1">
          <mxGeometry width="50" height="50" relative="1" as="geometry">
            <mxPoint x="-629" y="900" as="sourcePoint" />
            <mxPoint x="-629" y="1020" as="targetPoint" />
          </mxGeometry>
        </mxCell>
        <mxCell id="dFNtb1b9l759t3CY5BOG-16" value="" style="endArrow=none;dashed=1;html=1;rounded=0;fontFamily=Shadows Into Light;fontSize=14;strokeColor=#666666;strokeWidth=2;endFill=0;exitX=0.5;exitY=1;exitDx=0;exitDy=0;fontColor=#000000;" parent="1" target="dFNtb1b9l759t3CY5BOG-15" edge="1">
          <mxGeometry width="50" height="50" relative="1" as="geometry">
            <mxPoint x="-629" y="766.55" as="sourcePoint" />
            <mxPoint x="-629" y="1020" as="targetPoint" />
          </mxGeometry>
        </mxCell>
        <mxCell id="dFNtb1b9l759t3CY5BOG-15" value="" style="html=1;points=[];perimeter=orthogonalPerimeter;outlineConnect=0;targetShapes=umlLifeline;portConstraint=eastwest;newEdgeStyle={&quot;edgeStyle&quot;:&quot;elbowEdgeStyle&quot;,&quot;elbow&quot;:&quot;vertical&quot;,&quot;curved&quot;:0,&quot;rounded&quot;:0};" parent="1" vertex="1">
          <mxGeometry x="-634" y="810" width="10" height="60" as="geometry" />
        </mxCell>
        <mxCell id="dFNtb1b9l759t3CY5BOG-17" value="" style="endArrow=none;dashed=1;html=1;rounded=0;fontFamily=Shadows Into Light;fontSize=14;strokeColor=#666666;strokeWidth=2;endFill=0;exitX=0.5;exitY=1;exitDx=0;exitDy=0;fontColor=#000000;" parent="1" source="dFNtb1b9l759t3CY5BOG-18" target="dFNtb1b9l759t3CY5BOG-19" edge="1">
          <mxGeometry width="50" height="50" relative="1" as="geometry">
            <mxPoint x="-261" y="624.55" as="sourcePoint" />
            <mxPoint x="-261" y="874.55" as="targetPoint" />
          </mxGeometry>
        </mxCell>
        <mxCell id="dFNtb1b9l759t3CY5BOG-18" value="Remote Host" style="text;strokeColor=none;fillColor=none;html=1;verticalAlign=middle;align=center;spacing=0;fontStyle=1;fontSize=14;" parent="1" vertex="1">
          <mxGeometry x="-311" y="594.55" width="100" height="30" as="geometry" />
        </mxCell>
        <mxCell id="dFNtb1b9l759t3CY5BOG-19" value="" style="html=1;points=[];perimeter=orthogonalPerimeter;outlineConnect=0;targetShapes=umlLifeline;portConstraint=eastwest;newEdgeStyle={&quot;edgeStyle&quot;:&quot;elbowEdgeStyle&quot;,&quot;elbow&quot;:&quot;vertical&quot;,&quot;curved&quot;:0,&quot;rounded&quot;:0};" parent="1" vertex="1">
          <mxGeometry x="-266" y="650" width="10" height="160" as="geometry" />
        </mxCell>
        <mxCell id="dFNtb1b9l759t3CY5BOG-21" value="generateKeys()" style="html=1;verticalAlign=bottom;labelBackgroundColor=none;endArrow=open;endFill=0;rounded=0;" parent="1" edge="1">
          <mxGeometry width="160" relative="1" as="geometry">
            <mxPoint x="-925" y="667" as="sourcePoint" />
            <mxPoint x="-265" y="667" as="targetPoint" />
          </mxGeometry>
        </mxCell>
        <mxCell id="dFNtb1b9l759t3CY5BOG-34" value="commit(public-key)" style="html=1;verticalAlign=bottom;labelBackgroundColor=none;endArrow=open;endFill=0;rounded=0;" parent="1" target="dFNtb1b9l759t3CY5BOG-15" edge="1">
          <mxGeometry x="0.4026" width="160" relative="1" as="geometry">
            <mxPoint x="-925" y="817" as="sourcePoint" />
            <mxPoint x="-650" y="817" as="targetPoint" />
            <mxPoint as="offset" />
          </mxGeometry>
        </mxCell>
        <mxCell id="dFNtb1b9l759t3CY5BOG-35" value="" style="html=1;points=[];perimeter=orthogonalPerimeter;outlineConnect=0;targetShapes=umlLifeline;portConstraint=eastwest;newEdgeStyle={&quot;edgeStyle&quot;:&quot;elbowEdgeStyle&quot;,&quot;elbow&quot;:&quot;vertical&quot;,&quot;curved&quot;:0,&quot;rounded&quot;:0};" parent="1" vertex="1">
          <mxGeometry x="-261" y="750" width="10" height="50" as="geometry" />
        </mxCell>
        <mxCell id="dFNtb1b9l759t3CY5BOG-36" value="key-store" style="text;whiteSpace=wrap;html=1;verticalAlign=middle;align=center;spacing=0;fontSize=10;fillColor=#CCCCCC;spacingTop=1;spacingLeft=0;spacingBottom=2;spacingRight=0;" parent="1" vertex="1">
          <mxGeometry x="-250" y="750" width="41" height="10" as="geometry" />
        </mxCell>
        <mxCell id="dFNtb1b9l759t3CY5BOG-37" value="" style="html=1;verticalAlign=bottom;labelBackgroundColor=none;endArrow=open;endFill=0;dashed=1;rounded=0;movable=1;resizable=1;rotatable=1;deletable=1;editable=1;locked=0;connectable=1;entryX=1;entryY=0.25;entryDx=0;entryDy=0;" parent="1" source="dFNtb1b9l759t3CY5BOG-19" target="dFNtb1b9l759t3CY5BOG-36" edge="1">
          <mxGeometry width="160" relative="1" as="geometry">
            <mxPoint x="-54.479999999999905" y="700" as="sourcePoint" />
            <mxPoint x="-221" y="740" as="targetPoint" />
            <Array as="points">
              <mxPoint x="-181" y="690" />
              <mxPoint x="-181" y="753" />
            </Array>
          </mxGeometry>
        </mxCell>
        <mxCell id="dFNtb1b9l759t3CY5BOG-38" value="" style="sketch=0;pointerEvents=1;shadow=0;dashed=0;html=1;strokeColor=none;fillColor=#006633;labelPosition=center;verticalLabelPosition=bottom;verticalAlign=top;outlineConnect=0;align=center;shape=mxgraph.office.security.key_permissions;fontSize=10;rotation=90;" parent="1" vertex="1">
          <mxGeometry x="-705" y="787" width="10" height="20" as="geometry" />
        </mxCell>
        <mxCell id="dFNtb1b9l759t3CY5BOG-29" value="" style="sketch=0;pointerEvents=1;shadow=0;dashed=0;html=1;strokeColor=none;fillColor=#FF3333;labelPosition=center;verticalLabelPosition=bottom;verticalAlign=top;outlineConnect=0;align=center;shape=mxgraph.office.security.key_permissions;fontSize=10;rotation=90;" parent="1" vertex="1">
          <mxGeometry x="-221" y="673" width="10" height="20" as="geometry" />
        </mxCell>
        <mxCell id="dFNtb1b9l759t3CY5BOG-30" value="private-key" style="text;whiteSpace=wrap;html=1;verticalAlign=middle;align=center;spacing=0;fontSize=10;fillColor=none;" parent="1" vertex="1">
          <mxGeometry x="-231" y="690" width="40" height="20" as="geometry" />
        </mxCell>
        <mxCell id="dFNtb1b9l759t3CY5BOG-41" value="AGE-encryption-tool" style="text;whiteSpace=wrap;html=1;verticalAlign=middle;align=center;spacing=0;fontSize=10;fillColor=#CCCCCC;spacingTop=1;spacingLeft=0;spacingBottom=2;spacingRight=0;" parent="1" vertex="1">
          <mxGeometry x="-255" y="650" width="95" height="10" as="geometry" />
        </mxCell>
        <mxCell id="dFNtb1b9l759t3CY5BOG-44" value="clone()" style="html=1;verticalAlign=bottom;labelBackgroundColor=none;endArrow=open;endFill=0;rounded=0;" parent="1" target="dFNtb1b9l759t3CY5BOG-45" edge="1">
          <mxGeometry x="0.4026" width="160" relative="1" as="geometry">
            <mxPoint x="-925" y="901" as="sourcePoint" />
            <mxPoint x="-680" y="900" as="targetPoint" />
            <mxPoint as="offset" />
          </mxGeometry>
        </mxCell>
        <mxCell id="dFNtb1b9l759t3CY5BOG-45" value="" style="html=1;points=[];perimeter=orthogonalPerimeter;outlineConnect=0;targetShapes=umlLifeline;portConstraint=eastwest;newEdgeStyle={&quot;edgeStyle&quot;:&quot;elbowEdgeStyle&quot;,&quot;elbow&quot;:&quot;vertical&quot;,&quot;curved&quot;:0,&quot;rounded&quot;:0};" parent="1" vertex="1">
          <mxGeometry x="-634" y="890" width="10" height="60" as="geometry" />
        </mxCell>
        <mxCell id="dFNtb1b9l759t3CY5BOG-46" value="" style="html=1;verticalAlign=bottom;labelBackgroundColor=none;endArrow=open;endFill=0;dashed=1;rounded=0;" parent="1" source="dFNtb1b9l759t3CY5BOG-45" edge="1">
          <mxGeometry width="160" relative="1" as="geometry">
            <mxPoint x="-480" y="940" as="sourcePoint" />
            <mxPoint x="-925" y="941" as="targetPoint" />
          </mxGeometry>
        </mxCell>
        <mxCell id="dFNtb1b9l759t3CY5BOG-49" value="" style="endArrow=none;dashed=1;html=1;rounded=0;fontFamily=Shadows Into Light;fontSize=14;strokeColor=#666666;strokeWidth=2;endFill=0;exitX=0.5;exitY=1;exitDx=0;exitDy=0;fontColor=#000000;" parent="1" source="dFNtb1b9l759t3CY5BOG-50" target="dFNtb1b9l759t3CY5BOG-51" edge="1">
          <mxGeometry width="50" height="50" relative="1" as="geometry">
            <mxPoint x="-930" y="624.55" as="sourcePoint" />
            <mxPoint x="-930" y="809.55" as="targetPoint" />
          </mxGeometry>
        </mxCell>
        <mxCell id="dFNtb1b9l759t3CY5BOG-50" value="Admin" style="text;strokeColor=none;fillColor=none;html=1;verticalAlign=middle;align=center;spacing=0;fontStyle=1;fontSize=14;" parent="1" vertex="1">
          <mxGeometry x="-980" y="594.55" width="100" height="30" as="geometry" />
        </mxCell>
        <mxCell id="dFNtb1b9l759t3CY5BOG-51" value="" style="html=1;points=[];perimeter=orthogonalPerimeter;outlineConnect=0;targetShapes=umlLifeline;portConstraint=eastwest;newEdgeStyle={&quot;edgeStyle&quot;:&quot;elbowEdgeStyle&quot;,&quot;elbow&quot;:&quot;vertical&quot;,&quot;curved&quot;:0,&quot;rounded&quot;:0};" parent="1" vertex="1">
          <mxGeometry x="-935" y="660" width="10" height="180" as="geometry" />
        </mxCell>
        <mxCell id="dFNtb1b9l759t3CY5BOG-33" value="" style="html=1;verticalAlign=bottom;labelBackgroundColor=none;endArrow=open;endFill=0;dashed=1;rounded=0;" parent="1" source="dFNtb1b9l759t3CY5BOG-19" edge="1">
          <mxGeometry width="160" relative="1" as="geometry">
            <mxPoint x="-685" y="712" as="sourcePoint" />
            <mxPoint x="-925" y="712" as="targetPoint" />
          </mxGeometry>
        </mxCell>
        <mxCell id="dFNtb1b9l759t3CY5BOG-26" value="public-key" style="text;whiteSpace=wrap;html=1;verticalAlign=middle;align=center;spacing=0;fontSize=10;" parent="1" vertex="1">
          <mxGeometry x="-830" y="693" width="60" height="20" as="geometry" />
        </mxCell>
        <mxCell id="dFNtb1b9l759t3CY5BOG-23" value="" style="sketch=0;pointerEvents=1;shadow=0;dashed=0;html=1;strokeColor=none;fillColor=#006633;labelPosition=center;verticalLabelPosition=bottom;verticalAlign=top;outlineConnect=0;align=center;shape=mxgraph.office.security.key_permissions;fontSize=10;rotation=90;" parent="1" vertex="1">
          <mxGeometry x="-770" y="693" width="10" height="20" as="geometry" />
        </mxCell>
        <mxCell id="dFNtb1b9l759t3CY5BOG-55" value="" style="html=1;points=[];perimeter=orthogonalPerimeter;outlineConnect=0;targetShapes=umlLifeline;portConstraint=eastwest;newEdgeStyle={&quot;edgeStyle&quot;:&quot;elbowEdgeStyle&quot;,&quot;elbow&quot;:&quot;vertical&quot;,&quot;curved&quot;:0,&quot;rounded&quot;:0};" parent="1" vertex="1">
          <mxGeometry x="-935" y="890" width="10" height="260" as="geometry" />
        </mxCell>
        <mxCell id="dFNtb1b9l759t3CY5BOG-56" value="" style="group" parent="1" vertex="1" connectable="0">
          <mxGeometry x="-770" y="920" width="75" height="20" as="geometry" />
        </mxCell>
        <mxCell id="dFNtb1b9l759t3CY5BOG-47" value="public-key" style="text;whiteSpace=wrap;html=1;verticalAlign=middle;align=center;spacing=0;fontSize=10;" parent="dFNtb1b9l759t3CY5BOG-56" vertex="1">
          <mxGeometry width="60" height="20" as="geometry" />
        </mxCell>
        <mxCell id="dFNtb1b9l759t3CY5BOG-48" value="" style="sketch=0;pointerEvents=1;shadow=0;dashed=0;html=1;strokeColor=none;fillColor=#006633;labelPosition=center;verticalLabelPosition=bottom;verticalAlign=top;outlineConnect=0;align=center;shape=mxgraph.office.security.key_permissions;fontSize=10;rotation=90;" parent="dFNtb1b9l759t3CY5BOG-56" vertex="1">
          <mxGeometry x="60" width="10" height="20" as="geometry" />
        </mxCell>
        <mxCell id="dFNtb1b9l759t3CY5BOG-61" value="" style="html=1;points=[];perimeter=orthogonalPerimeter;outlineConnect=0;targetShapes=umlLifeline;portConstraint=eastwest;newEdgeStyle={&quot;edgeStyle&quot;:&quot;elbowEdgeStyle&quot;,&quot;elbow&quot;:&quot;vertical&quot;,&quot;curved&quot;:0,&quot;rounded&quot;:0};" parent="1" vertex="1">
          <mxGeometry x="-930" y="1045" width="10" height="50" as="geometry" />
        </mxCell>
        <mxCell id="dFNtb1b9l759t3CY5BOG-62" value="SOPS" style="text;whiteSpace=wrap;html=1;verticalAlign=middle;align=center;spacing=0;fontSize=10;fillColor=#CCCCCC;spacingTop=1;spacingLeft=0;spacingBottom=2;spacingRight=0;" parent="1" vertex="1">
          <mxGeometry x="-920" y="1045" width="30" height="10" as="geometry" />
        </mxCell>
        <mxCell id="dFNtb1b9l759t3CY5BOG-64" value="" style="html=1;verticalAlign=bottom;labelBackgroundColor=none;endArrow=open;endFill=0;rounded=0;movable=1;resizable=1;rotatable=1;deletable=1;editable=1;locked=0;connectable=1;entryX=1;entryY=0.5;entryDx=0;entryDy=0;" parent="1" target="dFNtb1b9l759t3CY5BOG-62" edge="1">
          <mxGeometry width="160" relative="1" as="geometry">
            <mxPoint x="-925" y="1020" as="sourcePoint" />
            <mxPoint x="-790" y="1070" as="targetPoint" />
            <Array as="points">
              <mxPoint x="-790" y="1020" />
              <mxPoint x="-790" y="1050" />
            </Array>
          </mxGeometry>
        </mxCell>
        <mxCell id="dFNtb1b9l759t3CY5BOG-70" value="" style="html=1;points=[];perimeter=orthogonalPerimeter;outlineConnect=0;targetShapes=umlLifeline;portConstraint=eastwest;newEdgeStyle={&quot;edgeStyle&quot;:&quot;elbowEdgeStyle&quot;,&quot;elbow&quot;:&quot;vertical&quot;,&quot;curved&quot;:0,&quot;rounded&quot;:0};" parent="1" vertex="1">
          <mxGeometry x="-634" y="1131" width="10" height="99" as="geometry" />
        </mxCell>
        <mxCell id="dFNtb1b9l759t3CY5BOG-71" value="" style="endArrow=none;dashed=1;html=1;rounded=0;fontFamily=Shadows Into Light;fontSize=14;strokeColor=#666666;strokeWidth=2;endFill=0;fontColor=#000000;" parent="1" source="dFNtb1b9l759t3CY5BOG-51" target="dFNtb1b9l759t3CY5BOG-55" edge="1">
          <mxGeometry width="50" height="50" relative="1" as="geometry">
            <mxPoint x="-1030" y="830" as="sourcePoint" />
            <mxPoint x="-1030" y="1095" as="targetPoint" />
          </mxGeometry>
        </mxCell>
        <mxCell id="dFNtb1b9l759t3CY5BOG-72" value="" style="endArrow=none;dashed=1;html=1;rounded=0;fontFamily=Shadows Into Light;fontSize=14;strokeColor=#666666;strokeWidth=2;endFill=0;fontColor=#000000;" parent="1" source="dFNtb1b9l759t3CY5BOG-55" edge="1">
          <mxGeometry width="50" height="50" relative="1" as="geometry">
            <mxPoint x="-900" y="1160" as="sourcePoint" />
            <mxPoint x="-930" y="1200" as="targetPoint" />
          </mxGeometry>
        </mxCell>
        <mxCell id="dFNtb1b9l759t3CY5BOG-73" value="" style="endArrow=none;dashed=1;html=1;rounded=0;fontFamily=Shadows Into Light;fontSize=14;strokeColor=#666666;strokeWidth=2;endFill=0;fontColor=#000000;" parent="1" source="dFNtb1b9l759t3CY5BOG-15" target="dFNtb1b9l759t3CY5BOG-45" edge="1">
          <mxGeometry width="50" height="50" relative="1" as="geometry">
            <mxPoint x="-589" y="890" as="sourcePoint" />
            <mxPoint x="-589" y="940" as="targetPoint" />
          </mxGeometry>
        </mxCell>
        <mxCell id="dFNtb1b9l759t3CY5BOG-74" value="commit(encrypted-credentials-file)" style="html=1;verticalAlign=bottom;labelBackgroundColor=none;endArrow=open;endFill=0;rounded=0;" parent="1" edge="1">
          <mxGeometry x="-0.0034" width="160" relative="1" as="geometry">
            <mxPoint x="-925" y="1141" as="sourcePoint" />
            <mxPoint x="-634" y="1141" as="targetPoint" />
            <mxPoint as="offset" />
          </mxGeometry>
        </mxCell>
        <mxCell id="dFNtb1b9l759t3CY5BOG-69" value="" style="sketch=0;pointerEvents=1;shadow=0;dashed=0;html=1;strokeColor=none;fillColor=#006633;labelPosition=center;verticalLabelPosition=bottom;verticalAlign=top;outlineConnect=0;align=center;shape=mxgraph.office.security.key_permissions;fontSize=10;rotation=90;" parent="1" vertex="1">
          <mxGeometry x="-864" y="994" width="10" height="20" as="geometry" />
        </mxCell>
        <mxCell id="dFNtb1b9l759t3CY5BOG-68" value="encrypt(public-key, credentials)" style="text;whiteSpace=wrap;html=1;verticalAlign=middle;align=center;spacing=0;fontSize=10;" parent="1" vertex="1">
          <mxGeometry x="-931" y="1003" width="154" height="20" as="geometry" />
        </mxCell>
        <mxCell id="dFNtb1b9l759t3CY5BOG-75" value="" style="html=1;verticalAlign=bottom;labelBackgroundColor=none;endArrow=open;endFill=0;rounded=0;movable=1;resizable=1;rotatable=1;deletable=1;editable=1;locked=0;connectable=1;dashed=1;" parent="1" target="dFNtb1b9l759t3CY5BOG-55" edge="1">
          <mxGeometry width="160" relative="1" as="geometry">
            <mxPoint x="-920" y="1080" as="sourcePoint" />
            <mxPoint x="-885" y="1110" as="targetPoint" />
            <Array as="points">
              <mxPoint x="-785" y="1080" />
              <mxPoint x="-785" y="1110" />
            </Array>
          </mxGeometry>
        </mxCell>
        <mxCell id="dFNtb1b9l759t3CY5BOG-76" value="&lt;span style=&quot;color: rgb(0, 0, 0); font-family: Helvetica; font-size: 11px; font-style: normal; font-variant-ligatures: normal; font-variant-caps: normal; font-weight: 400; letter-spacing: normal; orphans: 2; text-align: center; text-indent: 0px; text-transform: none; widows: 2; word-spacing: 0px; -webkit-text-stroke-width: 0px; background-color: rgb(255, 255, 255); text-decoration-thickness: initial; text-decoration-style: initial; text-decoration-color: initial; float: none; display: inline !important;&quot;&gt;encrypted-credentials-file&lt;/span&gt;" style="text;whiteSpace=wrap;html=1;" parent="1" vertex="1">
          <mxGeometry x="-914" y="1090" width="134" height="30" as="geometry" />
        </mxCell>
        <mxCell id="dFNtb1b9l759t3CY5BOG-77" value="" style="endArrow=none;dashed=1;html=1;rounded=0;fontFamily=Shadows Into Light;fontSize=14;strokeColor=#666666;strokeWidth=2;endFill=0;fontColor=#000000;" parent="1" source="dFNtb1b9l759t3CY5BOG-19" target="dFNtb1b9l759t3CY5BOG-84" edge="1">
          <mxGeometry width="50" height="50" relative="1" as="geometry">
            <mxPoint x="-230" y="950" as="sourcePoint" />
            <mxPoint x="-261" y="1190" as="targetPoint" />
          </mxGeometry>
        </mxCell>
        <mxCell id="dFNtb1b9l759t3CY5BOG-78" value="" style="endArrow=none;dashed=1;html=1;rounded=0;fontFamily=Shadows Into Light;fontSize=14;strokeColor=#666666;strokeWidth=2;endFill=0;fontColor=#000000;" parent="1" source="dFNtb1b9l759t3CY5BOG-70" edge="1">
          <mxGeometry width="50" height="50" relative="1" as="geometry">
            <mxPoint x="-570" y="1230" as="sourcePoint" />
            <mxPoint x="-629" y="1280" as="targetPoint" />
          </mxGeometry>
        </mxCell>
        <mxCell id="dFNtb1b9l759t3CY5BOG-81" value="" style="group" parent="1" vertex="1" connectable="0">
          <mxGeometry x="-629" y="1176" width="58" height="50" as="geometry" />
        </mxCell>
        <mxCell id="dFNtb1b9l759t3CY5BOG-79" value="" style="html=1;points=[];perimeter=orthogonalPerimeter;outlineConnect=0;targetShapes=umlLifeline;portConstraint=eastwest;newEdgeStyle={&quot;edgeStyle&quot;:&quot;elbowEdgeStyle&quot;,&quot;elbow&quot;:&quot;vertical&quot;,&quot;curved&quot;:0,&quot;rounded&quot;:0};" parent="dFNtb1b9l759t3CY5BOG-81" vertex="1">
          <mxGeometry width="10" height="50" as="geometry" />
        </mxCell>
        <mxCell id="dFNtb1b9l759t3CY5BOG-80" value="workflow" style="text;whiteSpace=wrap;html=1;verticalAlign=middle;align=center;spacing=0;fontSize=10;fillColor=#CCCCCC;spacingTop=1;spacingLeft=0;spacingBottom=2;spacingRight=0;" parent="dFNtb1b9l759t3CY5BOG-81" vertex="1">
          <mxGeometry x="10" width="48" height="10" as="geometry" />
        </mxCell>
        <mxCell id="dFNtb1b9l759t3CY5BOG-82" value="" style="html=1;verticalAlign=bottom;labelBackgroundColor=none;endArrow=open;endFill=0;rounded=0;movable=1;resizable=1;rotatable=1;deletable=1;editable=1;locked=0;connectable=1;" parent="1" source="dFNtb1b9l759t3CY5BOG-70" target="dFNtb1b9l759t3CY5BOG-80" edge="1">
          <mxGeometry width="160" relative="1" as="geometry">
            <mxPoint x="-610" y="1150" as="sourcePoint" />
            <mxPoint x="-560" y="1180" as="targetPoint" />
            <Array as="points">
              <mxPoint x="-520" y="1150" />
              <mxPoint x="-520" y="1181" />
            </Array>
          </mxGeometry>
        </mxCell>
        <mxCell id="dFNtb1b9l759t3CY5BOG-83" value="trigger" style="edgeLabel;html=1;align=center;verticalAlign=middle;resizable=0;points=[];" parent="dFNtb1b9l759t3CY5BOG-82" vertex="1" connectable="0">
          <mxGeometry x="-0.3043" y="-1" relative="1" as="geometry">
            <mxPoint as="offset" />
          </mxGeometry>
        </mxCell>
        <mxCell id="dFNtb1b9l759t3CY5BOG-84" value="" style="html=1;points=[];perimeter=orthogonalPerimeter;outlineConnect=0;targetShapes=umlLifeline;portConstraint=eastwest;newEdgeStyle={&quot;edgeStyle&quot;:&quot;elbowEdgeStyle&quot;,&quot;elbow&quot;:&quot;vertical&quot;,&quot;curved&quot;:0,&quot;rounded&quot;:0};" parent="1" vertex="1">
          <mxGeometry x="-266" y="1200" width="10" height="70" as="geometry" />
        </mxCell>
        <mxCell id="dFNtb1b9l759t3CY5BOG-85" value="updatePassword(encrypted-credentials-file)" style="html=1;verticalAlign=bottom;labelBackgroundColor=none;endArrow=open;endFill=0;rounded=0;" parent="1" target="dFNtb1b9l759t3CY5BOG-84" edge="1">
          <mxGeometry x="-0.0034" width="160" relative="1" as="geometry">
            <mxPoint x="-619" y="1219" as="sourcePoint" />
            <mxPoint x="-319" y="1219" as="targetPoint" />
            <mxPoint as="offset" />
          </mxGeometry>
        </mxCell>
        <mxCell id="dFNtb1b9l759t3CY5BOG-86" value="Server-Component" style="text;whiteSpace=wrap;html=1;verticalAlign=middle;align=center;spacing=0;fontSize=10;fillColor=#CCCCCC;spacingTop=1;spacingLeft=0;spacingBottom=2;spacingRight=0;" parent="1" vertex="1">
          <mxGeometry x="-255" y="1200" width="85" height="10" as="geometry" />
        </mxCell>
      </root>
    </mxGraphModel>
  </diagram>
</mxfile>
